<svg width="257" height="26" viewBox="0 0 257 26" fill="none" xmlns="http://www.w3.org/2000/svg">
<g clip-path="url(#clip0)">
    <path fill-rule="evenodd" clip-rule="evenodd" d="M10.9522 17.6864C10.9246 17.8932 10.9104 18.104 10.9104 18.3181C10.9104 20.9942 13.1357 23.1636 15.8807 23.1636C18.6257 23.1636 20.851 20.9942 20.851 18.3181C20.851 15.642 18.6257 13.4727 15.8807 13.4727C15.6611 13.4727 15.4448 13.4865 15.2327 13.5135C14.9428 15.6843 13.179 17.4038 10.9522 17.6864Z" fill="#0066FF"/>
    <path fill-rule="evenodd" clip-rule="evenodd" d="M5.37254 13.4883C5.23984 13.4779 5.10569 13.4727 4.97028 13.4727C2.22527 13.4727 0 15.642 0 18.3181C0 20.9942 2.22527 23.1636 4.97028 23.1636C7.71529 23.1636 9.94057 20.9942 9.94057 18.3181C9.94057 18.1127 9.92745 17.9103 9.90199 17.7116C7.55156 17.528 5.66229 15.7504 5.37254 13.4883Z" fill="#5D00F5"/>
    <path fill-rule="evenodd" clip-rule="evenodd" d="M9.94057 7.68176C9.94057 5.0057 7.71529 2.8363 4.97028 2.8363C2.22527 2.8363 2.72711e-07 5.0057 0 7.68176C-4.93787e-07 10.3578 2.22527 12.5272 4.97028 12.5272C5.0974 12.5272 5.2234 12.5226 5.3481 12.5134C5.5318 10.131 7.48263 8.22918 9.92643 8.05008C9.93579 7.92852 9.94057 7.80568 9.94057 7.68176Z" fill="#EB236B"/>
    <path fill-rule="evenodd" clip-rule="evenodd" d="M15.2585 12.4896C15.4623 12.5144 15.67 12.5272 15.8807 12.5272C18.6257 12.5272 20.851 10.3578 20.851 7.68176C20.851 5.0057 18.6257 2.8363 15.8807 2.8363C13.1357 2.8363 10.9104 5.0057 10.9104 7.68176C10.9104 7.81377 10.9158 7.94455 10.9265 8.07391C13.2468 8.35639 15.0703 10.1982 15.2585 12.4896Z" fill="#4BD0A0"/>
</g>
<defs>
<clipPath id="clip0">
<rect width="257" height="26" fill="white"/>
</clipPath>
</defs>
</svg>
